<?xml version="1.0" encoding="UTF-8"?>
<svg width="752pt" height="752pt" version="1.1" viewBox="0 0 752 752" xmlns="http://www.w3.org/2000/svg">
 <g>
  <path d="m376 580.06c-111.43 0-201.97-90.539-201.97-201.97 0-111.43 90.539-201.97 201.97-201.97s201.97 90.539 201.97 201.97c0 111.43-90.535 201.97-201.97 201.97zm0-390.01c-103.77 0-188.04 84.27-188.04 188.04 0 103.77 84.27 188.04 188.04 188.04s188.04-84.27 188.04-188.04c0-103.77-84.27-188.04-188.04-188.04z"/>
  <path d="m376 531.31c-84.27 0-153.22-68.949-153.22-153.22 0-84.27 68.949-153.22 153.22-153.22s153.22 68.949 153.22 153.22c0 84.27-68.949 153.22-153.22 153.22zm0-292.51c-76.609 0-139.29 62.68-139.29 139.29s62.68 139.29 139.29 139.29 139.29-62.68 139.29-139.29-62.68-139.29-139.29-139.29z"/>
  <path d="m426.14 454.7c-4.1797 0-6.9648-2.7852-6.9648-6.9648 0-23.68-19.5-43.18-43.18-43.18s-43.18 19.5-43.18 43.18c0 4.1797-2.7852 6.9648-6.9648 6.9648-4.1797 0-6.9648-2.7852-6.9648-6.9648 0-31.34 25.77-57.109 57.109-57.109s57.109 25.77 57.109 57.109c0 4.1797-2.7852 6.9648-6.9648 6.9648z"/>
  <path d="m376 404.55c-16.02 0-28.555-12.535-28.555-28.555s12.535-28.555 28.555-28.555 28.555 12.535 28.555 28.555-12.535 28.555-28.555 28.555zm0-43.18c-8.3555 0-14.625 6.2695-14.625 14.625s6.2695 14.625 14.625 14.625 14.625-6.2695 14.625-14.625-6.2656-14.625-14.625-14.625z"/>
  <path d="m275.02 409.43c-4.1797 0-6.9648-2.7852-6.9648-6.9648 0-31.34 25.77-57.109 57.109-57.109 13.93 0 26.465 4.875 36.91 13.93 2.7852 2.7852 3.4805 6.9648 0.69531 9.75s-6.9648 3.4805-9.75 0.69531c-7.6602-6.9648-18.109-10.445-27.859-10.445-23.68 0-43.18 19.5-43.18 43.18 0.003907 3.4844-2.7812 6.9648-6.9609 6.9648z"/>
  <path d="m325.86 358.59c-16.02 0-28.555-12.535-28.555-28.555 0-16.02 12.535-28.555 28.555-28.555s28.555 12.535 28.555 28.555c-0.003906 16.02-13.234 28.555-28.555 28.555zm0-43.18c-8.3555 0-14.625 6.2695-14.625 14.625 0 8.3555 6.2695 14.625 14.625 14.625s14.625-6.2695 14.625-14.625c0-8.3555-6.9648-14.625-14.625-14.625z"/>
  <path d="m476.98 409.43c-4.1797 0-6.9648-2.7852-6.9648-6.9648 0-11.84-4.1797-22.285-12.535-30.645-8.3555-8.3555-18.805-12.535-30.645-12.535-10.445 0-20.195 3.4805-27.859 10.445-2.7852 2.7852-7.6602 2.0898-9.75-0.69531-2.7852-2.7852-2.0898-7.6602 0.69531-9.75 10.445-9.0547 23.68-13.93 36.91-13.93 15.32 0 29.945 6.2695 40.395 16.715 11.145 11.145 16.715 25.07 16.715 40.395 0.003907 3.4844-3.4766 6.9648-6.9609 6.9648z"/>
  <path d="m426.14 358.59c-16.02 0-28.555-12.535-28.555-28.555 0-16.02 12.535-28.555 28.555-28.555s28.555 12.535 28.555 28.555c0 16.02-12.535 28.555-28.555 28.555zm0-43.18c-8.3555 0-14.625 6.2695-14.625 14.625 0 8.3555 6.2695 14.625 14.625 14.625s14.625-6.2695 14.625-14.625c0-8.3555-6.2656-14.625-14.625-14.625z"/>
  <path d="m250.64 385.05h-90.535c-4.1797 0-6.9648-2.7852-6.9648-6.9648 0-4.1797 2.7852-6.9648 6.9648-6.9648h90.539c4.1797 0 6.9648 2.7852 6.9648 6.9648-0.003906 4.1797-2.7891 6.9648-6.9688 6.9648z"/>
  <path d="m373.91 257.61c-4.1797 0-6.9648-2.7852-6.9648-6.9648l0.003907-90.535c0-4.1797 2.7852-6.9648 6.9648-6.9648 4.1797 0 6.9648 2.7852 6.9648 6.9648v90.539c-0.003906 4.1758-3.4844 6.9609-6.9688 6.9609z"/>
  <path d="m591.9 380.88h-90.539c-4.1797 0-6.9648-2.7852-6.9648-6.9648 0-4.1797 2.7852-6.9648 6.9648-6.9648h90.539c4.1797 0 6.9648 2.7852 6.9648 6.9648 0 4.1797-2.7852 6.9648-6.9648 6.9648z"/>
  <path d="m378.09 598.86c-4.1797 0-6.9648-2.7852-6.9648-6.9648v-90.539c0-4.1797 2.7852-6.9648 6.9648-6.9648 4.1797 0 6.9648 2.7852 6.9648 6.9648v90.539c0 4.1797-2.7852 6.9648-6.9648 6.9648z"/>
 </g>
</svg>
